<svg width="43" height="30" viewBox="0 0 43 30" fill="none" xmlns="http://www.w3.org/2000/svg">
<path d="M37.1377 20.3892C37.1377 23.6468 36.3997 26.0391 34.9236 27.5661C33.4984 29.0422 31.2588 29.7803 28.2048 29.7803C23.5729 29.7803 21.257 27.5152 21.257 22.9851C21.257 15.2992 23.0894 9.64935 26.7542 6.03545C30.4699 2.37065 35.7126 0.538246 42.4823 0.538246L41.5661 6.03545C39.7337 6.03545 37.5959 6.8244 35.1527 8.4023C32.7604 9.9293 31.3097 12.0925 30.8007 14.892C35.0254 14.892 37.1377 16.7244 37.1377 20.3892ZM16.5233 20.3892C16.5233 23.6468 15.7852 26.0391 14.3091 27.5661C12.8839 29.0422 10.6443 29.7803 7.5903 29.7803C2.9584 29.7803 0.64245 27.5152 0.64245 22.9851C0.64245 15.2992 2.47485 9.64935 6.13965 6.03545C9.85535 2.37065 15.0981 0.538246 21.8678 0.538246L20.9516 6.03545C19.1191 6.03545 16.9814 6.8244 14.5382 8.4023C12.1459 9.9293 10.6952 12.0925 10.1862 14.892C14.4109 14.892 16.5233 16.7244 16.5233 20.3892Z" fill="#E05C94"/>
</svg>
